<svg width="44" height="44" viewBox="0 0 44 44" fill="none" xmlns="http://www.w3.org/2000/svg">
<rect x="0.5" y="0.5" width="43" height="43" rx="5.5" stroke="#E6E7E8"/>
<path d="M26.4769 13.3486L20.204 9.55515C19.6119 9.19298 18.9388 9.00156 18.2532 9.00037C16.2094 9.00037 14.3348 10.7123 14.3348 13.1051V27.3074L26.4769 19.967C28.9083 18.4947 28.9083 14.82 26.4769 13.3486ZM17.8484 20.448V12.868L24.1163 16.6567L17.8484 20.448Z" fill="#0E1422"/>
<path d="M29.8489 34.9845C29.8489 35.0274 17.9908 34.9661 17.9908 34.9661L16.9434 34.8426C15.2467 34.6441 13.9443 33.1234 14.002 31.3347C14.002 31.2918 14.0057 31.2519 14.0081 31.2104C14.0547 30.4366 14.3261 29.6962 14.7858 29.0885C14.9725 28.8462 15.2009 28.6426 15.4592 28.4883L24.4782 23.0725C26.3414 21.9535 27.8931 21.5621 28.6999 19.5342C28.9974 18.7757 29.126 17.9562 29.0757 17.138L29.0446 16.5866L29.9651 21.9205C30.083 22.8264 29.9013 23.7538 29.4211 24.5169C29.1326 24.9785 28.7475 25.3653 28.2951 25.6479L17.8295 30.8944C17.8191 30.9006 17.809 30.9075 17.7993 30.915C17.5127 31.1293 17.6896 31.6069 18.0403 31.5868L26.7515 31.6404C28.4433 31.5418 29.8526 33.2113 29.8489 34.9845Z" fill="#0E1422"/>
</svg>
